<?xml version="1.0" standalone="no"?>
<!DOCTYPE svg PUBLIC "-//W3C//DTD SVG 20010904//EN"
 "http://www.w3.org/TR/2001/REC-SVG-20010904/DTD/svg10.dtd">
<svg version="1.0" xmlns="http://www.w3.org/2000/svg"
 width="580.000000pt" height="234.000000pt" viewBox="0 0 580.000000 234.000000"
 preserveAspectRatio="xMidYMid meet">

<g transform="translate(0.000000,234.000000) scale(0.100000,-0.100000)"
fill="#000000" stroke="none">
<path d="M540 2239 c0 -94 -14 -179 -30 -179 -3 0 -17 34 -30 76 -13 41 -28
77 -32 80 -15 9 -8 -32 17 -107 45 -130 29 -126 -79 21 -55 74 -101 129 -103
123 -3 -7 36 -69 86 -138 50 -68 91 -127 91 -130 0 -14 -28 -1 -74 33 -99 74
-116 84 -116 70 0 -7 30 -36 68 -63 l67 -50 -37 -3 c-22 -2 -77 9 -133 27
-101 33 -115 36 -115 23 0 -4 39 -20 87 -36 49 -15 106 -40 127 -54 l40 -27
-82 -5 c-120 -7 -107 -24 21 -28 59 -1 107 -6 107 -10 0 -4 -67 -30 -150 -57
-82 -27 -150 -53 -150 -57 0 -13 11 -10 158 37 77 25 142 45 146 45 21 0 -4
-26 -74 -76 -44 -32 -80 -64 -80 -71 0 -15 25 -1 101 59 20 15 39 28 42 28 17
0 -24 -87 -75 -158 -33 -45 -58 -88 -55 -95 2 -6 32 26 66 73 55 75 131 146
131 122 0 -5 -9 -35 -20 -67 -21 -61 -27 -106 -11 -89 5 5 21 47 36 94 47 145
55 139 55 -43 l0 -157 -270 0 -270 0 0 -683 0 -684 23 -21 c22 -21 31 -22 243
-22 230 0 264 -4 264 -26 0 -8 9 -14 20 -14 11 0 20 6 20 14 0 22 34 26 261
26 198 0 219 2 240 19 l24 19 0 684 0 683 -267 3 -268 2 0 157 c0 182 8 188
55 43 32 -99 34 -102 45 -95 5 3 -2 38 -16 77 -13 39 -24 75 -24 80 0 26 70
-38 127 -117 37 -49 68 -84 70 -78 3 7 -22 50 -55 95 -50 70 -93 158 -76 158
4 0 89 -60 131 -92 7 -5 14 -5 17 1 4 5 -32 37 -79 71 -75 54 -101 80 -77 80
4 0 70 -21 147 -45 148 -48 155 -49 155 -37 0 4 -67 30 -150 57 -82 27 -150
53 -150 57 0 4 48 9 108 10 127 4 140 21 20 28 l-82 5 40 27 c21 14 78 39 127
54 48 16 87 32 87 36 0 12 -8 10 -114 -23 -56 -17 -113 -29 -134 -27 l-37 3
73 53 c39 30 70 58 66 63 -5 9 -36 -11 -140 -88 -29 -21 -54 -30 -54 -18 0 3
41 61 91 130 50 69 89 131 87 137 -4 11 -44 -39 -176 -221 -29 -41 -32 -43
-32 -20 0 14 13 64 29 112 17 49 26 89 20 92 -5 4 -11 0 -14 -7 -3 -7 -16 -44
-29 -83 l-24 -70 -16 37 c-11 27 -16 68 -16 143 0 63 -4 105 -10 105 -6 0 -10
-40 -10 -101z m-2 -286 l-3 -38 -17 25 c-16 24 -16 28 0 73 l17 48 3 -35 c2
-20 2 -53 0 -73z m47 -10 c-9 -13 -18 -23 -20 -23 -3 0 -5 33 -5 73 l1 72 19
-50 c18 -44 18 -51 5 -72z m-74 -14 c25 -35 33 -35 -76 -2 l-60 18 45 6 c25 3
50 7 57 7 6 1 22 -12 34 -29z m188 20 c20 0 15 -4 -24 -18 -27 -10 -63 -21
-78 -25 l-28 -7 23 31 c19 26 28 31 52 26 16 -3 40 -6 55 -7z m-231 -45 l57
-17 -33 -14 c-31 -13 -35 -12 -72 18 -42 34 -50 45 -25 35 9 -3 41 -13 73 -22z
m252 23 c0 -2 -18 -18 -40 -36 -37 -30 -41 -31 -72 -18 l-33 14 65 20 c70 22
80 25 80 20z m-226 -109 c-61 -86 -65 -89 -49 -29 16 61 13 57 45 70 42 17 43
13 4 -41z m114 41 c26 -9 34 -19 42 -52 6 -23 13 -49 16 -57 5 -13 4 -13 -9 0
-21 23 -89 120 -84 120 2 0 18 -5 35 -11z m-68 -42 c0 -25 -6 -37 -22 -45 -13
-7 -34 -20 -47 -29 -20 -15 -23 -15 -15 -2 15 25 77 109 81 109 2 0 3 -15 3
-33z m62 -14 c53 -75 56 -81 28 -60 -14 9 -35 22 -47 29 -17 8 -23 20 -23 45
0 18 2 33 4 33 2 0 19 -21 38 -47z m-62 -653 c0 -232 -2 -260 -16 -260 -33 0
-87 -34 -111 -72 l-26 -38 -178 0 -179 0 0 315 0 315 255 0 255 0 0 -260z
m530 -55 l0 -315 -185 0 c-124 0 -185 4 -185 11 0 5 -23 35 -52 65 -36 38 -58
54 -70 51 -17 -5 -18 9 -18 249 l0 254 255 0 255 0 0 -315z m-379 -323 c6 -18
8 -47 5 -64 -7 -37 -44 -98 -58 -98 -5 0 2 14 16 30 32 38 41 88 26 134 -13
40 -62 86 -91 86 -21 0 -26 16 -6 23 18 6 95 -72 108 -111z m-177 92 c-61 -22
-96 -63 -101 -121 -10 -112 93 -183 202 -138 16 6 18 5 8 -5 -7 -7 -36 -15
-65 -17 -41 -3 -60 1 -86 16 -100 63 -95 205 8 259 24 12 51 22 60 21 8 0 -3
-7 -26 -15z m1 -43 c-8 -17 -30 -56 -49 -87 -33 -55 -35 -56 -41 -31 -14 53
45 147 91 147 13 0 12 -4 -1 -29z m95 14 c39 -20 62 -66 58 -118 l-3 -42 -47
82 c-60 104 -61 105 -8 78z m-36 -33 l14 -27 -39 0 c-21 0 -39 1 -39 3 0 2 8
17 17 32 19 32 27 31 47 -8z m4 -69 c2 -13 -4 -26 -15 -32 -22 -11 -35 -5 -51
24 -10 18 -11 18 -12 2 0 -10 -5 -15 -10 -12 -8 5 -7 11 1 21 6 7 15 12 19 9
5 -3 12 0 15 5 12 19 50 7 53 -17z m-193 -23 c12 -70 60 -121 138 -144 16 -5
17 -26 17 -257 l0 -251 -22 6 c-13 3 -121 6 -240 6 -183 0 -219 2 -232 16 -14
13 -16 58 -16 340 l0 324 174 0 174 0 7 -40z m225 14 c0 -22 -16 -17 -17 6 -1
11 2 18 8 15 5 -4 9 -13 9 -21z m460 -286 c0 -172 -3 -323 -6 -336 -4 -12 -16
-24 -28 -27 -11 -3 -123 -6 -249 -7 l-227 -3 0 248 c0 227 1 248 18 253 78 24
122 71 130 140 l5 44 178 0 179 0 0 -312z m-527 242 c15 0 41 7 57 15 27 14
30 14 40 -5 10 -19 8 -20 -90 -20 -98 0 -100 1 -90 20 10 19 13 19 33 5 12 -8
34 -15 50 -15z m87 -44 c-6 -8 -27 -20 -47 -27 -28 -9 -43 -8 -79 6 -71 27
-62 35 42 35 83 0 95 -2 84 -14z"/>
<path d="M270 1340 c0 -18 -7 -20 -68 -20 l-69 0 -38 -86 c-43 -97 -42 -128 9
-153 37 -17 71 -6 99 31 l20 27 -29 68 c-16 37 -30 71 -32 75 -2 4 21 8 51 8
l55 0 -4 -102 c-8 -172 -11 -188 -40 -188 -17 0 -24 -5 -24 -20 0 -15 7 -20
25 -20 21 0 25 -5 25 -30 0 -16 -4 -30 -10 -30 -5 0 -10 -9 -10 -20 0 -29 42
-47 75 -32 24 11 36 52 15 52 -5 0 -10 14 -10 30 0 25 4 30 25 30 18 0 25 5
25 20 0 15 -7 20 -28 20 l-29 0 -6 142 c-4 78 -5 143 -3 145 2 2 27 3 54 1
l51 -3 -30 -68 c-27 -60 -29 -73 -19 -97 17 -42 62 -57 105 -37 51 24 53 50 9
151 l-37 86 -69 0 c-61 0 -68 2 -68 20 0 11 -4 20 -10 20 -5 0 -10 -9 -10 -20z
m-105 -142 l15 -38 -41 0 c-22 0 -39 3 -37 8 2 4 10 24 18 44 16 42 22 40 45
-14z m295 -34 c0 -2 -18 -4 -40 -4 -22 0 -40 2 -40 5 0 3 9 24 21 47 l21 41
19 -43 c10 -23 19 -44 19 -46z m-260 -28 c0 -5 -7 -18 -17 -28 -29 -32 -91
-19 -105 22 -5 12 6 15 58 15 35 0 64 -4 64 -9z m280 -3 c0 -38 -74 -58 -104
-27 -30 29 -19 39 44 39 39 0 60 -4 60 -12z m-191 -95 c0 -21 -3 -38 -9 -38
-6 0 -10 28 -9 68 1 52 3 60 9 37 4 -16 8 -47 9 -67z m1 -92 c0 -2 -8 -10 -17
-17 -16 -13 -17 -12 -4 4 13 16 21 21 21 13z m0 -36 c0 -5 -5 -10 -11 -10 -5
0 -7 5 -4 10 3 6 8 10 11 10 2 0 4 -4 4 -10z m30 -30 c0 -16 -43 -29 -62 -18
-30 15 -20 28 22 28 22 0 40 -5 40 -10z"/>
<path d="M622 1345 c-23 -29 -19 -55 7 -55 25 0 61 -54 61 -92 0 -44 23 -75
60 -83 29 -6 30 -9 24 -41 -7 -40 8 -64 41 -64 18 0 21 -4 18 -24 -4 -18 3
-29 26 -45 17 -12 31 -29 31 -37 0 -18 29 -64 41 -64 5 0 9 8 9 18 1 12 9 6
31 -20 17 -21 35 -35 40 -32 11 6 -10 47 -68 135 -29 43 -43 74 -39 86 7 23
-4 40 -29 45 -16 3 -19 10 -17 35 3 34 -19 63 -48 63 -10 0 -25 12 -34 26 -16
24 -16 25 1 22 14 -2 19 5 21 30 2 18 -2 40 -9 48 -14 17 -51 18 -67 2 -13
-13 -19 -2 -24 42 -4 37 -49 40 -76 5z m61 -11 c-1 -10 3 -26 8 -36 15 -28 0
-43 -18 -19 -8 12 -20 21 -28 21 -26 0 -29 23 -5 42 27 22 46 19 43 -8z m98
-51 c10 -11 10 -14 2 -9 -8 4 -13 1 -13 -9 0 -9 5 -13 11 -9 7 4 10 1 7 -7 -3
-8 -12 -13 -21 -11 -20 3 -39 -31 -30 -55 9 -26 23 -33 66 -33 32 0 37 -3 36
-22 0 -13 -3 -17 -6 -10 -3 7 -24 12 -53 12 -60 0 -75 17 -74 81 1 72 43 112
75 72z m-11 -104 c0 -6 -4 -7 -10 -4 -5 3 -10 11 -10 16 0 6 5 7 10 4 6 -3 10
-11 10 -16z m58 -89 c7 -11 8 -20 2 -20 -5 0 -14 9 -20 20 -6 11 -7 20 -3 20
5 0 14 -9 21 -20z m23 -34 c32 5 39 4 39 -10 0 -13 -10 -16 -49 -16 -53 0 -65
8 -55 35 6 16 8 16 16 1 7 -12 18 -15 49 -10z m39 -86 c14 0 20 -7 20 -23 0
-13 5 -28 11 -34 6 -6 9 -19 7 -29 -4 -15 -7 -13 -17 11 -6 17 -26 42 -43 56
-20 17 -28 30 -23 39 6 10 10 9 17 -4 5 -9 18 -16 28 -16z"/>
<path d="M537 744 c-14 -14 -7 -35 11 -32 9 2 17 10 17 17 0 16 -18 25 -28 15z"/>
<path d="M107 650 c-13 -12 -15 -20 -7 -25 6 -4 9 -13 6 -21 -4 -10 0 -14 10
-12 12 2 26 -24 55 -107 22 -60 43 -112 46 -115 3 -3 3 3 0 12 -3 9 3 27 14
41 24 31 25 44 1 26 -16 -13 -16 -13 1 7 9 11 14 25 10 29 -5 5 -1 4 9 -3 11
-9 18 -10 23 -2 3 5 3 10 -1 10 -3 0 -1 7 6 15 13 16 35 10 24 -6 -3 -5 -10
-6 -16 -3 -7 4 -8 2 -4 -4 5 -8 13 -9 25 -2 10 5 22 6 26 2 5 -4 5 -2 2 4 -4
6 -45 36 -92 65 -47 30 -83 59 -81 65 2 6 -4 18 -15 28 -23 19 -20 19 -42 -4z
m33 -20 c0 -5 -5 -10 -11 -10 -5 0 -7 5 -4 10 3 6 8 10 11 10 2 0 4 -4 4 -10z"/>
<path d="M302 469 c-31 -12 -59 -47 -67 -81 -9 -37 11 -94 38 -113 21 -15 20
-15 -15 -15 -38 0 -43 7 -62 93 -5 22 -12 28 -28 25 -16 -2 -24 -15 -35 -58
-7 -30 -18 -56 -23 -58 -6 -2 -10 -17 -10 -33 l0 -29 144 0 145 0 3 -47 c3
-44 5 -48 28 -48 24 0 25 2 28 78 3 73 2 77 -18 77 -21 0 -21 1 4 31 30 36 35
101 10 137 -31 44 -91 62 -142 41z m15 -24 c0 -8 -8 -15 -18 -15 -19 0 -36
-33 -20 -38 6 -2 11 -14 11 -26 0 -12 5 -27 11 -33 6 -6 9 -23 7 -39 l-3 -29
-27 29 c-39 40 -38 93 1 135 33 35 38 37 38 16z m63 -4 c0 11 2 11 13 0 10
-11 10 -14 0 -18 -7 -3 -13 -11 -13 -19 0 -11 7 -13 28 -8 24 7 26 6 13 -10
-11 -13 -12 -22 -2 -42 16 -36 14 -42 -21 -64 -49 -30 -66 -26 -74 15 -3 19
-10 38 -15 41 -14 8 -11 34 4 34 6 0 19 -5 27 -10 12 -8 13 -13 3 -30 -7 -11
-13 -25 -13 -32 0 -7 7 0 15 16 20 38 19 42 -15 62 -37 23 -44 39 -16 41 11 1
25 9 31 17 7 11 13 12 22 4 10 -8 13 -7 13 3z m50 -22 c0 -5 -4 -9 -10 -9 -5
0 -10 7 -10 16 0 8 5 12 10 9 6 -3 10 -10 10 -16z m20 -58 c0 -11 -4 -23 -10
-26 -5 -3 -10 -2 -10 4 0 5 -3 16 -6 25 -4 11 -1 16 10 16 9 0 16 -8 16 -19z
m-250 -92 c0 -5 -16 -9 -35 -9 l-34 0 17 30 17 30 18 -21 c9 -12 17 -25 17
-30z m240 -89 c0 -47 -3 -60 -15 -60 -11 0 -15 12 -15 45 l0 45 -145 0 c-122
0 -145 2 -145 15 0 13 24 15 160 15 l160 0 0 -60z"/>
<path d="M791 601 c-13 -15 -20 -35 -18 -49 5 -26 -17 -42 -58 -42 -44 0 -55
-21 -55 -103 0 -56 -4 -78 -16 -88 -9 -7 -20 -22 -25 -34 -5 -11 -14 -27 -21
-36 -20 -29 -2 -45 78 -67 44 -12 118 -33 166 -46 l87 -24 50 62 c38 50 48 68
44 90 -3 14 -9 29 -14 32 -5 3 -9 14 -9 25 0 10 -7 19 -15 19 -12 0 -15 16
-15 85 0 69 -3 85 -15 85 -8 0 -15 4 -15 9 0 5 -16 9 -35 8 -40 -1 -42 0 -49
35 -2 14 -13 35 -24 46 -20 20 -20 20 -41 -7z m41 -41 c2 -20 -2 -26 -19 -28
-26 -4 -30 16 -12 50 13 23 26 14 31 -22z m79 -50 c17 0 19 -9 19 -85 l0 -85
-56 0 -57 0 7 53 c3 28 6 69 6 91 0 38 1 38 31 32 17 -3 40 -6 50 -6z m-105
-61 c-3 -34 -6 -73 -6 -85 0 -22 -4 -24 -50 -24 l-50 0 0 75 c0 71 1 75 23 75
12 0 29 5 37 10 8 5 24 10 34 10 17 0 18 -6 12 -61z m153 -21 c-2 -104 -17
-126 -18 -25 -1 52 3 87 9 87 6 0 10 -27 9 -62z m-282 -70 c-2 -24 -4 -7 -4
37 0 44 2 63 4 43 2 -21 2 -57 0 -80z m267 -57 c3 -5 -3 -16 -14 -26 -19 -17
-23 -17 -108 0 -135 28 -136 33 -5 34 67 0 125 -4 127 -8z m46 2 c-1 -12 -61
-75 -66 -70 -5 5 54 77 62 77 2 0 4 -3 4 -7z m-326 -9 c23 -9 20 -24 -4 -24
-11 0 -20 7 -20 15 0 17 2 18 24 9z m43 -26 c-3 -8 -6 -5 -6 6 -1 11 2 17 5
13 3 -3 4 -12 1 -19z m91 -3 c19 -4 32 -13 32 -21 0 -10 -6 -14 -17 -10 -10 2
-33 7 -50 11 -20 4 -33 13 -33 21 0 10 6 14 18 10 9 -2 32 -7 50 -11z m183
-12 c-5 -10 -22 -29 -37 -43 -24 -22 -23 -20 6 18 35 44 47 54 31 25z m-324 1
c-3 -3 -12 -4 -19 -1 -8 3 -5 6 6 6 11 1 17 -2 13 -5z m251 -27 c3 -15 -1 -17
-25 -11 -37 9 -43 13 -43 28 0 21 64 4 68 -17z m-211 17 c-3 -3 -12 -4 -19 -1
-8 3 -5 6 6 6 11 1 17 -2 13 -5z m313 1 c0 -10 -65 -94 -72 -95 -16 0 -7 19
25 58 29 37 47 51 47 37z m-370 -20 c0 -8 -6 -15 -14 -15 -8 0 -16 7 -20 15
-4 10 1 15 14 15 11 0 20 -7 20 -15z m97 9 c-3 -3 -12 -4 -19 -1 -8 3 -5 6 6
6 11 1 17 -2 13 -5z m8 -21 c60 -13 75 -20 75 -35 0 -22 4 -22 -91 4 -49 13
-79 26 -79 35 0 17 4 16 95 -4z m42 11 c-3 -3 -12 -4 -19 -1 -8 3 -5 6 6 6 11
1 17 -2 13 -5z m40 -10 c-3 -3 -12 -4 -19 -1 -8 3 -5 6 6 6 11 1 17 -2 13 -5z
m40 -10 c-3 -3 -12 -4 -19 -1 -8 3 -5 6 6 6 11 1 17 -2 13 -5z m40 -10 c-3 -3
-12 -4 -19 -1 -8 3 -5 6 6 6 11 1 17 -2 13 -5z m-24 -15 c27 -7 37 -15 37 -30
0 -15 -5 -19 -17 -15 -10 3 -30 8 -45 12 -18 4 -28 13 -28 25 0 22 2 22 53 8z"/>
<path d="M2392 1451 c-11 -7 -11 -9 2 -14 14 -6 16 -31 16 -181 0 -130 -3
-176 -12 -179 -7 -3 7 -5 32 -5 25 0 39 2 33 5 -10 3 -13 52 -13 194 l0 189
-22 0 c-13 0 -29 -4 -36 -9z"/>
<path d="M3195 1452 c-23 -5 -45 -22 -27 -22 8 0 12 -20 12 -59 l0 -60 -34 14
c-90 38 -172 -57 -146 -169 17 -76 86 -114 148 -82 21 11 32 12 34 4 3 -7 14
-9 32 -4 21 5 25 10 17 20 -6 7 -12 82 -13 187 -3 168 -4 174 -23 171z m-36
-168 c32 -41 30 -136 -4 -169 -30 -31 -47 -31 -82 -1 -25 22 -28 30 -28 89 0
50 4 70 19 86 27 30 70 27 95 -5z"/>
<path d="M3633 1453 c-23 -4 -33 -23 -13 -23 6 0 10 -27 10 -60 0 -33 -2 -60
-3 -60 -2 0 -18 7 -36 16 -89 44 -173 -66 -141 -184 18 -70 95 -103 149 -66
18 13 25 14 31 4 5 -9 17 -10 36 -5 16 4 23 10 17 12 -10 4 -13 51 -13 189 0
101 -3 183 -7 183 -5 -1 -18 -4 -30 -6z m-43 -153 c21 -11 40 -60 40 -106 0
-75 -38 -115 -90 -94 -35 14 -50 48 -50 109 0 78 46 120 100 91z"/>
<path d="M1318 1433 c9 -3 12 -49 12 -178 0 -129 -3 -175 -12 -178 -7 -3 12
-5 42 -5 30 0 49 2 43 5 -9 3 -13 30 -13 84 l0 79 64 0 c42 0 66 -4 69 -12 3
-7 5 7 5 32 0 25 -2 39 -5 33 -3 -9 -27 -13 -69 -13 l-64 0 0 65 0 65 70 0
c55 0 71 -3 79 -17 9 -15 10 -12 11 15 l0 32 -122 -1 c-68 0 -117 -3 -110 -6z"/>
<path d="M4255 1278 c-37 -90 -73 -173 -81 -185 -14 -22 -13 -23 23 -23 21 0
33 4 27 8 -9 5 -7 19 5 52 l17 45 81 3 81 3 17 -45 c9 -24 14 -49 10 -55 -4
-7 9 -11 39 -11 l45 0 -18 33 c-10 17 -47 101 -81 185 -47 113 -67 152 -80
152 -13 0 -35 -41 -85 -162z m109 12 c16 -39 26 -73 23 -76 -2 -3 -32 -4 -65
-2 l-60 3 31 77 c16 43 33 76 37 73 3 -2 19 -36 34 -75z"/>
<path d="M2574 1368 c-7 -23 -17 -34 -32 -36 -27 -4 -29 -22 -2 -22 19 0 20
-7 20 -94 0 -52 4 -106 10 -120 11 -31 50 -42 82 -24 l23 13 -28 3 c-37 5 -47
33 -47 138 l0 84 30 0 c17 0 30 5 30 10 0 6 -13 10 -30 10 -28 0 -30 3 -30 35
0 44 -14 45 -26 3z"/>
<path d="M4824 1368 c-7 -23 -17 -34 -32 -36 -27 -4 -29 -22 -2 -22 19 0 20
-7 20 -105 0 -92 3 -108 20 -125 24 -24 49 -25 76 -5 18 14 18 14 -8 15 -39 0
-48 25 -48 129 l0 91 30 0 c17 0 30 5 30 10 0 6 -13 10 -30 10 -28 0 -30 3
-30 35 0 44 -14 45 -26 3z"/>
<path d="M1634 1326 c-18 -8 -35 -20 -39 -27 -6 -9 -3 -10 11 -4 44 18 72 17
94 -5 32 -32 22 -51 -40 -72 -58 -19 -100 -56 -100 -89 0 -11 12 -31 26 -46
21 -21 32 -24 61 -20 20 4 43 13 52 21 15 14 18 13 29 -5 11 -17 16 -18 35 -8
13 8 17 14 9 17 -8 2 -12 30 -12 92 0 103 -11 135 -53 150 -37 12 -35 12 -73
-4z m86 -149 c0 -60 -41 -91 -94 -71 -24 9 -20 57 6 73 20 13 61 28 81 30 4 1
7 -14 7 -32z"/>
<path d="M1923 1329 c-92 -27 -121 -171 -47 -240 48 -45 164 -24 164 29 0 13
-3 12 -19 -2 -12 -11 -36 -18 -58 -18 -54 0 -83 39 -83 110 0 43 5 58 25 77
27 28 76 33 95 10 16 -19 30 -19 30 -1 0 32 -56 50 -107 35z"/>
<path d="M2794 1326 c-18 -8 -35 -20 -39 -27 -6 -9 -3 -10 11 -4 43 18 72 17
93 -4 36 -36 27 -56 -31 -71 -58 -14 -108 -56 -108 -90 0 -11 12 -32 26 -47
21 -21 32 -24 61 -20 20 4 43 13 52 21 15 14 18 13 28 -4 8 -12 19 -16 33 -13
20 5 28 23 10 23 -6 0 -10 36 -10 89 0 109 -9 135 -51 150 -39 13 -37 13 -75
-3z m86 -153 c0 -42 -23 -73 -56 -73 -79 0 -70 75 12 100 44 13 44 13 44 -27z"/>
<path d="M3835 1333 c-60 -15 -102 -103 -85 -177 18 -83 103 -120 169 -74 19
12 37 29 39 37 4 11 -1 10 -19 -2 -36 -26 -95 -22 -124 8 -14 13 -25 31 -25
39 0 8 -3 21 -6 30 -5 14 6 16 86 16 l93 0 -6 37 c-10 61 -66 100 -122 86z
m55 -43 c37 -37 26 -50 -40 -50 -66 0 -74 9 -38 47 26 28 52 29 78 3z"/>
<path d="M5033 1325 c-89 -39 -92 -218 -5 -254 41 -17 94 -7 129 24 33 27 25
45 -9 21 -26 -18 -70 -21 -100 -5 -18 10 -48 65 -48 89 0 6 35 10 90 10 74 0
90 3 90 15 0 23 -25 78 -41 91 -24 20 -73 24 -106 9z m69 -27 c9 -7 19 -23 23
-35 6 -22 4 -23 -60 -23 -65 0 -66 0 -54 23 24 44 61 58 91 35z"/>
<path d="M5289 1329 c-59 -22 -63 -97 -7 -127 17 -9 45 -29 61 -43 26 -22 28
-28 18 -47 -16 -29 -67 -29 -98 0 l-23 21 0 -34 c0 -34 0 -34 50 -37 57 -3
105 17 115 49 13 39 -4 68 -63 107 -44 29 -57 43 -57 62 0 21 5 26 32 28 22 2
38 -3 52 -17 l21 -21 0 30 c0 22 -5 30 -17 30 -10 0 -27 2 -38 5 -11 2 -32 -1
-46 -6z"/>
<path d="M2088 1323 c8 -3 12 -35 12 -109 0 -98 2 -107 25 -129 30 -31 73 -32
109 -4 21 17 26 18 26 5 0 -9 8 -16 18 -16 20 0 54 20 35 20 -10 0 -13 31 -13
120 l0 120 -32 0 c-25 0 -29 -3 -20 -12 7 -7 12 -43 12 -93 0 -94 -15 -125
-60 -125 -51 0 -60 20 -60 131 l0 99 -32 -1 c-18 0 -27 -3 -20 -6z"/>
<path d="M4595 1320 c-11 -5 -14 -9 -7 -9 9 -1 12 -31 12 -115 0 -82 -4 -116
-12 -119 -7 -3 10 -5 37 -5 28 0 44 2 38 5 -9 3 -13 34 -13 102 0 85 3 100 20
116 16 15 22 16 35 5 18 -15 42 0 31 19 -11 18 -48 12 -73 -11 l-23 -21 0 21
c0 23 -12 26 -45 12z"/>
<path d="M2834 766 c-55 -25 -59 -72 -9 -113 98 -79 98 -78 91 -101 -15 -46
-79 -48 -112 -4 -12 15 -13 13 -14 -15 0 -30 2 -31 49 -38 55 -7 82 3 107 40
25 38 3 78 -63 121 -47 30 -54 38 -51 62 2 22 9 28 35 30 22 2 38 -3 53 -18
26 -26 33 -22 24 14 -3 15 -13 26 -23 26 -9 0 -25 2 -36 5 -11 3 -34 -1 -51
-9z"/>
<path d="M3455 668 c-26 -62 -53 -126 -61 -142 -18 -37 -18 -36 12 -36 19 0
25 4 20 15 -3 8 0 28 5 45 11 29 13 30 70 30 58 0 60 -1 73 -32 8 -18 12 -38
9 -45 -4 -9 4 -13 24 -13 35 0 46 8 31 24 -5 6 -34 67 -62 135 -29 69 -57 126
-63 128 -6 2 -32 -47 -58 -109z m89 -46 c7 -21 5 -22 -43 -22 l-51 0 25 56
c14 31 25 59 26 63 1 7 33 -65 43 -97z"/>
<path d="M4781 762 c-48 -24 -73 -62 -78 -119 -8 -93 57 -158 150 -150 27 2
55 11 63 19 13 13 7 14 -46 10 -74 -5 -104 11 -121 67 -15 50 -4 107 26 137
31 31 96 33 124 5 22 -22 31 -18 31 14 0 19 -7 23 -46 29 -64 8 -65 8 -103
-12z"/>
<path d="M1321 658 c7 -111 7 -113 39 -141 29 -26 38 -29 79 -24 33 4 52 12
68 32 21 23 23 37 23 124 0 62 4 101 12 109 9 9 4 12 -22 11 -19 0 -29 -3 -22
-6 17 -7 16 -179 -1 -213 -11 -22 -19 -25 -62 -25 -43 0 -51 3 -62 25 -17 34
-18 206 0 213 6 3 -4 6 -23 6 l-35 1 6 -112z"/>
<path d="M1615 630 l0 -140 29 0 c23 0 26 3 17 14 -8 9 -11 48 -9 111 l3 98
78 -111 c43 -62 82 -112 88 -112 5 0 9 57 9 134 0 98 3 136 13 139 6 3 -3 6
-22 6 -28 1 -31 -1 -22 -13 8 -9 11 -47 9 -106 l-3 -92 -73 106 c-55 80 -78
106 -95 106 -22 0 -22 -2 -22 -140z"/>
<path d="M1915 630 l0 -140 35 0 c26 0 31 3 22 12 -17 17 -17 254 1 261 6 3
-4 6 -23 6 l-35 1 0 -140z"/>
<path d="M2038 758 c5 -7 33 -70 62 -140 29 -71 56 -128 61 -128 4 0 31 60 59
132 29 73 57 136 63 140 7 4 -3 8 -21 8 -20 0 -31 -4 -27 -10 6 -10 -50 -176
-65 -193 -10 -11 -83 172 -76 189 4 10 -4 14 -31 14 -27 0 -33 -3 -25 -12z"/>
<path d="M2308 758 c17 -17 17 -239 0 -256 -10 -10 7 -12 82 -10 93 3 95 4 98
28 3 20 1 23 -9 13 -7 -7 -37 -13 -66 -13 l-53 0 0 55 0 55 43 0 c24 0 48 -5
55 -12 9 -9 12 -4 12 22 0 26 -3 31 -12 22 -7 -7 -31 -12 -55 -12 l-43 0 0 50
0 50 48 0 c26 0 53 -5 60 -12 9 -9 12 -7 12 10 0 21 -4 22 -92 22 -72 0 -89
-3 -80 -12z"/>
<path d="M2535 630 l0 -140 35 0 c26 0 31 3 22 12 -7 7 -12 36 -12 65 0 46 3
53 19 53 18 0 55 -40 94 -102 15 -24 57 -40 57 -23 0 9 -42 68 -73 102 l-29
31 23 13 c13 6 27 17 31 23 14 21 8 62 -12 84 -17 18 -32 22 -88 22 l-67 0 0
-140z m116 110 c12 -7 19 -21 19 -40 0 -32 -23 -50 -64 -50 -24 0 -26 3 -26
50 0 47 2 50 26 50 14 0 34 -5 45 -10z"/>
<path d="M3008 763 c17 -7 17 -244 0 -261 -9 -9 -4 -12 23 -12 l34 0 0 140 0
140 -35 -1 c-19 0 -29 -3 -22 -6z"/>
<path d="M3138 763 c9 -3 12 -38 12 -127 0 -84 -4 -126 -12 -135 -11 -11 0
-12 61 -7 126 11 173 49 173 141 0 95 -52 136 -174 134 -40 0 -67 -3 -60 -6z
m137 -27 c18 -8 38 -23 44 -34 14 -26 14 -107 1 -133 -14 -25 -62 -49 -100
-49 l-30 0 0 115 0 115 25 0 c14 0 41 -6 60 -14z"/>
<path d="M3685 630 l0 -140 31 0 c70 0 139 20 168 50 23 23 30 39 33 82 7 100
-45 148 -161 148 l-71 0 0 -140z m140 105 c37 -18 55 -51 55 -100 0 -72 -43
-115 -115 -115 l-35 0 0 108 c0 60 3 112 7 115 11 12 54 8 88 -8z"/>
<path d="M4088 764 c9 -4 12 -40 12 -128 0 -84 -4 -126 -12 -135 -11 -11 0
-12 61 -7 127 11 171 48 171 145 0 44 -5 56 -34 89 -34 37 -35 37 -123 39 -48
2 -82 0 -75 -3z m130 -25 c17 -6 38 -21 46 -34 20 -31 21 -114 1 -141 -18 -27
-65 -46 -101 -42 l-29 3 -3 99 c-1 55 0 106 2 113 6 16 42 17 84 2z"/>
<path d="M4368 758 c17 -17 17 -239 0 -256 -10 -10 7 -12 82 -10 93 3 95 4 98
28 3 20 1 23 -9 13 -7 -7 -37 -13 -66 -13 l-53 0 0 55 0 55 43 0 c24 0 48 -5
55 -12 9 -9 12 -4 12 22 0 26 -3 31 -12 22 -7 -7 -31 -12 -55 -12 l-43 0 0 50
0 50 48 0 c26 0 53 -5 60 -12 9 -9 12 -7 12 10 0 21 -4 22 -92 22 -72 0 -89
-3 -80 -12z"/>
<path d="M4968 763 c17 -7 17 -244 0 -261 -9 -9 -4 -12 23 -12 l34 0 -3 65 -4
65 62 0 62 0 -4 -65 -3 -65 35 0 c26 0 31 3 22 12 -17 17 -17 254 1 261 6 3
-4 6 -23 6 l-35 1 3 -60 4 -60 -62 0 -62 0 4 60 3 60 -35 -1 c-19 0 -29 -3
-22 -6z"/>
<path d="M5265 630 l0 -140 35 0 c26 0 31 3 22 12 -17 17 -17 254 1 261 6 3
-4 6 -23 6 l-35 1 0 -140z"/>
<path d="M5395 630 l0 -140 86 0 c90 0 99 5 99 48 -1 15 -2 15 -11 0 -8 -14
-23 -18 -69 -18 l-60 0 0 119 c0 86 3 121 13 124 6 3 -4 6 -23 6 l-35 1 0
-140z"/>
<path d="M5615 630 l0 -140 86 0 c81 0 87 1 93 23 10 36 7 41 -12 24 -12 -11
-36 -17 -70 -17 l-52 0 0 55 0 55 43 0 c24 0 48 -5 55 -12 9 -9 12 -4 11 23 0
18 -3 28 -6 22 -3 -8 -24 -13 -54 -13 l-49 0 0 50 0 50 53 0 c29 0 58 -5 65
-12 9 -9 12 -7 12 10 0 21 -4 22 -87 22 l-88 0 0 -140z"/>
</g>
</svg>
